# xmcd
#
# Track frame offsets: 
#        150
#        22737
#        42805
#        59176
#        76863
#        96615
#        111695
#        127572
#        148847
#
# Disc length: 2199 seconds
#
# Revision: 0
# Processed by: cddbd v1.5.2PL0 Copyright (c) Steve Scherf et al.
# Submitted via: ExactAudioCopy v0.95b4
#
DISCID=7a089509
DTITLE=Loquillo - Nueve Tragos
DYEAR=1999
DGENRE=Bebob
TTITLE0=Calidad De Vida
TTITLE1=Caray
TTITLE2=Mi Vida Es Una Fiesta
TTITLE3=La Rubia de "Hitch"
TTITLE4=Mis Problemas Con Las Mujeres
TTITLE5=El Día De San Martín
TTITLE6=Billy La Rocca
TTITLE7=Torpedo
TTITLE8=En Dino's A Las Diez
EXTD=
EXTT0=
EXTT1=
EXTT2=
EXTT3=
EXTT4=
EXTT5=
EXTT6=
EXTT7=
EXTT8=
PLAYORDER=
